<?xml version="1.0" encoding="UTF-8" standalone="no"?>
<svg width="350px" height="350px" viewBox="0 0 350 350" version="1.1" xmlns="http://www.w3.org/2000/svg" xmlns:xlink="http://www.w3.org/1999/xlink" xmlns:sketch="http://www.bohemiancoding.com/sketch/ns">
    <!-- Generator: Sketch 3.1.1 (8761) - http://www.bohemiancoding.com/sketch -->
    <title>Untitled 3</title>
    <desc>Created with Sketch.</desc>
    <defs></defs>
    <g id="Page-1" stroke="none" stroke-width="1" fill="none" fill-rule="evenodd" sketch:type="MSPage">
        <path d="M198.671221,323.056073 C269.743998,311.502369 324,249.837269 324,175.5 C324,92.9334299 257.06657,26 174.5,26 C91.9334299,26 25,92.9334299 25,175.5 C25,250.207629 79.7979742,312.116506 151.392316,323.225024 L139.988729,292.901846 C89.6734027,277.854437 53,231.209985 53,176 C53,108.621261 107.621261,54 175,54 C242.378739,54 297,108.621261 297,176 C297,231.209985 260.326597,277.854437 210.011317,292.901833 L198.671217,323.056081 Z" id="Oval-1" fill="#000000" sketch:type="MSShapeGroup"></path>
        <path d="M230.480767,202.000002 C234.025134,194.231498 236,185.596377 236,176.5 C236,142.660156 223.915039,125.183594 212.291016,108.856445 C212.291016,123.550781 209.818359,135.029297 199.414062,142.660156 C199.414062,111.339844 174.5,76.5820312 174.5,76.5820312 C162.992188,95.3945312 152.152344,104.902344 136.082031,121.03125 C120.011719,137.160156 113,157.152344 113,176.5 C113,185.596377 114.974866,194.231498 118.519233,202.000002 L230.48078,202 Z" id="Oval-3" fill="#000000" sketch:type="MSShapeGroup"></path>
        <path d="M101.661666,256 L138.963415,256 L174.5,350 L210.036585,256 L210.036585,256 L249.338334,256 C261.964867,244.267309 271.792214,229.563088 277.707711,213 L73.2922892,213 C79.2077861,229.563088 89.0351327,244.267309 101.661666,256 Z" id="Triangle-1" fill="#000000" sketch:type="MSShapeGroup"></path>
    </g>
</svg>